<?xml version="1.0" encoding="UTF-8" standalone="no"?>
<!-- Created with Inkscape (http://www.inkscape.org/) -->

<svg
   xmlns:dc="http://purl.org/dc/elements/1.1/"
   xmlns:cc="http://creativecommons.org/ns#"
   xmlns:rdf="http://www.w3.org/1999/02/22-rdf-syntax-ns#"
   xmlns:svg="http://www.w3.org/2000/svg"
   xmlns="http://www.w3.org/2000/svg"
   xmlns:xlink="http://www.w3.org/1999/xlink"
   xmlns:sodipodi="http://sodipodi.sourceforge.net/DTD/sodipodi-0.dtd"
   xmlns:inkscape="http://www.inkscape.org/namespaces/inkscape"
   width="24.341667mm"
   height="24.077084mm"
   viewBox="0 0 24.341667 24.077084"
   version="1.1"
   id="svg1519"
   inkscape:version="0.92.4 (5da689c313, 2019-01-14)">
  <defs
     id="defs1513">
    <linearGradient
       gradientTransform="matrix(1.0058652,0,0,0.994169,0,12)"
       gradientUnits="userSpaceOnUse"
       xlink:href="#ButtonShadow"
       id="linearGradient3664"
       y2="5.297224"
       x2="45.447727"
       y1="80.471962"
       x1="45.447727" />
    <linearGradient
       gradientTransform="matrix(1.0058652,0,0,0.994169,0,12)"
       gradientUnits="userSpaceOnUse"
       id="ButtonShadow"
       y2="7.0165396"
       x2="45.447727"
       y1="80.471962"
       x1="45.447727">
      <stop
         offset="0"
         style="stop-color:#000000;stop-opacity:1"
         id="stop3750" />
      <stop
         offset="1"
         style="stop-color:#000000;stop-opacity:0.58823532"
         id="stop3752" />
    </linearGradient>
    <filter
       style="color-interpolation-filters:sRGB"
       id="filter3174">
      <feGaussianBlur
         stdDeviation="1.71"
         id="feGaussianBlur3176" />
    </filter>
    <linearGradient
       gradientUnits="userSpaceOnUse"
       xlink:href="#ButtonShadow"
       id="linearGradient3671"
       y2="6.9171443"
       x2="26.5"
       y1="90.312759"
       x1="26.5" />
    <linearGradient
       gradientTransform="matrix(0.72,0,0,0.72,1.92,-5.52)"
       gradientUnits="userSpaceOnUse"
       xlink:href="#linearGradient3348"
       id="linearGradient4023"
       y2="32.012737"
       x2="34.85965"
       y1="17.736111"
       x1="34.85965" />
    <linearGradient
       id="linearGradient3348">
      <stop
         offset="0"
         style="stop-color:#e75854;stop-opacity:1"
         id="stop3350" />
      <stop
         offset="0.71691591"
         style="stop-color:#aa1c18;stop-opacity:1"
         id="stop3356" />
      <stop
         offset="1"
         style="stop-color:#aa1c18;stop-opacity:1"
         id="stop3352" />
    </linearGradient>
    <linearGradient
       gradientUnits="userSpaceOnUse"
       xlink:href="#linearGradient3737"
       id="linearGradient4010"
       y2="58.466385"
       x2="23.607143"
       y1="6"
       x1="23.607143" />
    <linearGradient
       id="linearGradient3737">
      <stop
         offset="0"
         style="stop-color:#ffffff;stop-opacity:1"
         id="stop3739" />
      <stop
         offset="1"
         style="stop-color:#ffffff;stop-opacity:0"
         id="stop3741" />
    </linearGradient>
    <linearGradient
       gradientUnits="userSpaceOnUse"
       xlink:href="#linearGradient3317"
       id="linearGradient3361"
       y2="85.821426"
       x2="48.035713"
       y1="25.910715"
       x1="48.035713" />
    <linearGradient
       gradientTransform="scale(1.0598527,0.9435274)"
       gradientUnits="userSpaceOnUse"
       id="linearGradient3317"
       y2="20.137329"
       x2="11.794092"
       y1="3.2126782"
       x1="11.794092">
      <stop
         offset="0"
         style="stop-color:#52802d;stop-opacity:1"
         id="stop3319" />
      <stop
         offset="1"
         style="stop-color:#52802d;stop-opacity:1"
         id="stop3321" />
    </linearGradient>
    <linearGradient
       gradientTransform="translate(0,12)"
       gradientUnits="userSpaceOnUse"
       xlink:href="#linearGradient3187"
       id="linearGradient3706"
       y2="5.9877172"
       x2="48"
       y1="78"
       x1="48" />
    <linearGradient
       id="linearGradient3187">
      <stop
         offset="0"
         style="stop-color:#aa1c18;stop-opacity:1"
         id="stop3189" />
      <stop
         offset="1"
         style="stop-color:#e7615d;stop-opacity:1"
         id="stop3191" />
    </linearGradient>
    <linearGradient
       gradientUnits="userSpaceOnUse"
       xlink:href="#linearGradient3737"
       id="linearGradient3188"
       y2="73.994667"
       x2="36.357143"
       y1="18"
       x1="36.357143" />
    <filter
       style="color-interpolation-filters:sRGB"
       id="filter3179"
       height="1.9230769"
       width="1.5901639"
       y="-0.46153846"
       x="-0.29508197">
      <feGaussianBlur
         stdDeviation="6.6964288"
         id="feGaussianBlur3181" />
    </filter>
    <radialGradient
       gradientTransform="matrix(1.1573129,0,0,0.99590774,-7.551021,0.1971319)"
       gradientUnits="userSpaceOnUse"
       xlink:href="#linearGradient3737"
       id="radialGradient2874"
       fy="90.171875"
       fx="48"
       r="42"
       cy="90.171875"
       cx="48" />
    <linearGradient
       gradientTransform="matrix(1.0277778,0,0,1.0127315,-1.333333,0.03087956)"
       gradientUnits="userSpaceOnUse"
       xlink:href="#ButtonShadow"
       id="linearGradient3692-0"
       y2="6.9171443"
       x2="26.5"
       y1="90.312759"
       x1="26.5" />
    <radialGradient
       gradientTransform="matrix(1.1573129,0,0,0.99590774,-7.551021,0.197132)"
       gradientUnits="userSpaceOnUse"
       xlink:href="#linearGradient3737"
       id="radialGradient3681"
       fy="90.171875"
       fx="48"
       r="42"
       cy="90.171875"
       cx="48" />
    <clipPath
       id="clipPath3690">
      <path
         inkscape:connector-curvature="0"
         style="opacity:0.35;fill:#ff00ff;stroke:none"
         id="path3692"
         d="m 77.375,23.75 c -3.324,0 -6,2.676 -6,6 V 79 c 0,3.324 2.676,6 6,6 h 59.875 c 3.324,0 6,-2.676 6,-6 V 29.75 c 0,-3.324 -2.676,-6 -6,-6 z M 108,33.28125 116.125,41.375 v -2.84375 h 5.34375 v 8.125 L 132,57.28125 h -5.875 V 76 H 89.90625 V 57.34375 H 84 Z" />
    </clipPath>
    <filter
       style="color-interpolation-filters:sRGB"
       id="filter3694">
      <feGaussianBlur
         stdDeviation="0.6804878"
         id="feGaussianBlur3696" />
    </filter>
    <linearGradient
       id="linearGradient1214">
      <stop
         id="stop1208"
         style="stop-color:#8e1714;stop-opacity:1"
         offset="0" />
      <stop
         id="stop1210"
         style="stop-color:#aa1c18;stop-opacity:1"
         offset="0.71691591" />
      <stop
         id="stop1212"
         style="stop-color:#aa1c18;stop-opacity:1"
         offset="1" />
    </linearGradient>
    <clipPath
       id="clipPath3668">
      <path
         inkscape:connector-curvature="0"
         style="display:inline;opacity:0.9;fill:url(#linearGradient3664-1);fill-opacity:1;stroke:none"
         id="path3670"
         d="M 48,33.268293 24,57.351916 h 5.920127 V 76 H 66.120851 V 57.268293 H 72 L 61.463415,46.648084 v -8.111499 h -5.351916 v 2.843206 z" />
    </clipPath>
    <filter
       style="color-interpolation-filters:sRGB"
       id="filter3674">
      <feGaussianBlur
         stdDeviation="0.45365853"
         id="feGaussianBlur3676" />
    </filter>
    <radialGradient
       gradientTransform="matrix(1.1573129,0,0,0.99590774,-7.551021,0.197132)"
       gradientUnits="userSpaceOnUse"
       xlink:href="#linearGradient3737"
       id="radialGradient3662"
       fy="90.171875"
       fx="48"
       r="42"
       cy="90.171875"
       cx="48" />
    <linearGradient
       gradientUnits="userSpaceOnUse"
       xlink:href="#linearGradient1472"
       id="linearGradient3811"
       y2="32"
       x2="56"
       y1="76"
       x1="56" />
    <linearGradient
       id="linearGradient1472">
      <stop
         id="stop1466"
         style="stop-color:#941815;stop-opacity:1"
         offset="0" />
      <stop
         id="stop1468"
         style="stop-color:#aa1c18;stop-opacity:1"
         offset="0.71691591" />
      <stop
         id="stop1470"
         style="stop-color:#aa1c18;stop-opacity:1"
         offset="1" />
    </linearGradient>
    <clipPath
       id="clipPath3818">
      <path
         inkscape:connector-curvature="0"
         style="fill:#ff0000;fill-opacity:1;stroke:none"
         id="path3820"
         d="m 32,32 c -1.108,0 -2,0.892 -2,2 v 40 c 0,1.108 0.892,2 2,2 h 32 c 1.108,0 2,-0.892 2,-2 V 46 C 66,43 65.135375,41.854124 60.65625,37.375 55.728517,32.447267 55,32 52,32 Z m 2,4 H 52 V 46 H 62 V 72 H 34 Z m 4,6 v 2 h 10 v -2 z m 0,6 v 2 h 10 v -2 z m 0,6 v 2 h 19 v -2 z m 0,6 v 2 h 19 v -2 z m 0,6 v 2 h 19 v -2 z" />
    </clipPath>
    <filter
       style="color-interpolation-filters:sRGB"
       id="filter3822">
      <feGaussianBlur
         stdDeviation="0.4"
         id="feGaussianBlur3824" />
    </filter>
    <clipPath
       id="clipPath3835">
      <path
         inkscape:connector-curvature="0"
         style="opacity:0.35;fill:#000000;fill-opacity:0.99607843;stroke:none"
         id="path3837"
         d="m 18,72 c -1.108,0 -2,0.892 -2,2 v 68 c 0,1.108 0.892,2 2,2 h 60 c 1.108,0 2,-0.892 2,-2 V 74 c 0,-1.108 -0.892,-2 -2,-2 z m 14,10 h 20 c 3,0 3.728517,0.447267 8.65625,5.375 C 65.135375,91.854124 66,93 66,96 v 28 c 0,1.108 -0.892,2 -2,2 H 32 c -1.108,0 -2,-0.892 -2,-2 V 84 c 0,-1.108 0.892,-2 2,-2 z m 2,4 v 36 H 62 V 96 H 52 V 86 Z m 4,6 h 10 v 2 H 38 Z m 0,6 h 10 v 2 H 38 Z m 0,6 h 19 v 2 H 38 Z m 0,6 h 19 v 2 H 38 Z m 0,6 h 19 v 2 H 38 Z" />
    </clipPath>
    <filter
       style="color-interpolation-filters:sRGB"
       id="filter3716">
      <feGaussianBlur
         stdDeviation="0.6"
         id="feGaussianBlur3718" />
    </filter>
    <filter
       style="color-interpolation-filters:sRGB"
       id="filter3174-7">
      <feGaussianBlur
         stdDeviation="1.71"
         id="feGaussianBlur3176-1" />
    </filter>
    <linearGradient
       gradientUnits="userSpaceOnUse"
       xlink:href="#ButtonShadow"
       id="linearGradient3671-1"
       y2="6.9171443"
       x2="26.5"
       y1="90.312759"
       x1="26.5" />
    <linearGradient
       gradientUnits="userSpaceOnUse"
       xlink:href="#linearGradient3737"
       id="linearGradient4010-7"
       y2="58.466385"
       x2="23.607143"
       y1="6"
       x1="23.607143" />
    <linearGradient
       gradientUnits="userSpaceOnUse"
       xlink:href="#linearGradient3317"
       id="linearGradient3361-3"
       y2="85.821426"
       x2="48.035713"
       y1="25.910715"
       x1="48.035713" />
    <linearGradient
       gradientUnits="userSpaceOnUse"
       xlink:href="#linearGradient3737"
       id="linearGradient3188-9"
       y2="73.994667"
       x2="36.357143"
       y1="18"
       x1="36.357143" />
    <filter
       style="color-interpolation-filters:sRGB"
       id="filter3179-4"
       height="1.9230769"
       width="1.5901639"
       y="-0.46153846"
       x="-0.29508197">
      <feGaussianBlur
         stdDeviation="6.6964288"
         id="feGaussianBlur3181-8" />
    </filter>
    <radialGradient
       gradientTransform="matrix(1.1573129,0,0,0.99590774,-7.551021,0.1971319)"
       gradientUnits="userSpaceOnUse"
       xlink:href="#linearGradient3737"
       id="radialGradient2874-1"
       fy="90.171875"
       fx="48"
       r="42"
       cy="90.171875"
       cx="48" />
    <linearGradient
       inkscape:collect="always"
       xlink:href="#ButtonShadow"
       id="linearGradient1173"
       gradientUnits="userSpaceOnUse"
       gradientTransform="matrix(1.0277778,0,0,1.0127315,-1.333333,0.03087963)"
       x1="26.5"
       y1="90.312759"
       x2="26.5"
       y2="6.9171443" />
    <linearGradient
       inkscape:collect="always"
       xlink:href="#ButtonShadow"
       id="linearGradient1179"
       gradientUnits="userSpaceOnUse"
       x1="26.5"
       y1="90.312759"
       x2="26.5"
       y2="6.9171443" />
    <linearGradient
       inkscape:collect="always"
       xlink:href="#linearGradient3737"
       id="linearGradient1181"
       gradientUnits="userSpaceOnUse"
       x1="23.607143"
       y1="6"
       x2="23.607143"
       y2="58.466385" />
    <linearGradient
       inkscape:collect="always"
       xlink:href="#linearGradient3737"
       id="linearGradient1183"
       gradientUnits="userSpaceOnUse"
       x1="36.357143"
       y1="18"
       x2="36.357143"
       y2="73.994667" />
    <radialGradient
       gradientTransform="matrix(1.1573129,0,0,0.99590774,-7.551021,0.197132)"
       gradientUnits="userSpaceOnUse"
       xlink:href="#linearGradient3737"
       id="radialGradient3681-6"
       fy="90.171875"
       fx="48"
       r="42"
       cy="90.171875"
       cx="48" />
    <clipPath
       id="clipPath3690-3">
      <path
         inkscape:connector-curvature="0"
         style="opacity:0.35;fill:#ff00ff;stroke:none"
         id="path3692-8"
         d="m 77.375,23.75 c -3.324,0 -6,2.676 -6,6 V 79 c 0,3.324 2.676,6 6,6 h 59.875 c 3.324,0 6,-2.676 6,-6 V 29.75 c 0,-3.324 -2.676,-6 -6,-6 z M 108,33.28125 116.125,41.375 v -2.84375 h 5.34375 v 8.125 L 132,57.28125 h -5.875 V 76 H 89.90625 V 57.34375 H 84 Z" />
    </clipPath>
    <filter
       style="color-interpolation-filters:sRGB"
       id="filter3694-5">
      <feGaussianBlur
         stdDeviation="0.6804878"
         id="feGaussianBlur3696-6" />
    </filter>
    <linearGradient
       inkscape:collect="always"
       xlink:href="#linearGradient1214"
       id="linearGradient1185"
       gradientUnits="userSpaceOnUse"
       x1="47"
       y1="76"
       x2="47"
       y2="33.086185" />
    <clipPath
       id="clipPath3668-9">
      <path
         inkscape:connector-curvature="0"
         style="display:inline;opacity:0.9;fill:url(#linearGradient3664-1);fill-opacity:1;stroke:none"
         id="path3670-8"
         d="M 48,33.268293 24,57.351916 h 5.920127 V 76 H 66.120851 V 57.268293 H 72 L 61.463415,46.648084 v -8.111499 h -5.351916 v 2.843206 z" />
    </clipPath>
    <filter
       style="color-interpolation-filters:sRGB"
       id="filter3674-4">
      <feGaussianBlur
         stdDeviation="0.45365853"
         id="feGaussianBlur3676-8" />
    </filter>
    <linearGradient
       inkscape:collect="always"
       xlink:href="#ButtonShadow"
       id="linearGradient3500"
       gradientUnits="userSpaceOnUse"
       gradientTransform="matrix(1.0277778,0,0,1.0127315,-1.333333,0.03087963)"
       x1="26.5"
       y1="90.312759"
       x2="26.5"
       y2="6.9171443" />
    <linearGradient
       inkscape:collect="always"
       xlink:href="#ButtonShadow"
       id="linearGradient3502"
       gradientUnits="userSpaceOnUse"
       gradientTransform="matrix(1.0277778,0,0,1.0127315,-1.333333,0.03087963)"
       x1="26.5"
       y1="90.312759"
       x2="26.5"
       y2="6.9171443" />
  </defs>
  <sodipodi:namedview
     id="base"
     pagecolor="#ffffff"
     bordercolor="#666666"
     borderopacity="1.0"
     inkscape:pageopacity="0.0"
     inkscape:pageshadow="2"
     inkscape:zoom="0.98994949"
     inkscape:cx="-17.132728"
     inkscape:cy="75.85843"
     inkscape:document-units="mm"
     inkscape:current-layer="layer1"
     showgrid="false"
     inkscape:window-width="1680"
     inkscape:window-height="966"
     inkscape:window-x="0"
     inkscape:window-y="28"
     inkscape:window-maximized="1"
     fit-margin-top="0"
     fit-margin-left="0"
     fit-margin-right="0"
     fit-margin-bottom="0" />
  <metadata
     id="metadata1516">
    <rdf:RDF>
      <cc:Work
         rdf:about="">
        <dc:format>image/svg+xml</dc:format>
        <dc:type
           rdf:resource="http://purl.org/dc/dcmitype/StillImage" />
        <dc:title></dc:title>
      </cc:Work>
    </rdf:RDF>
  </metadata>
  <g
     inkscape:label="Layer 1"
     inkscape:groupmode="layer"
     id="layer1"
     transform="translate(-69.1926,-112.8627)">
    <g
       id="g1449"
       transform="translate(-64.162127,-45.179079)">
      <g
         transform="matrix(0.26458333,0,0,0.26458333,132.82556,156.98345)"
         style="display:inline"
         id="layer5">
        <path
           style="display:inline;opacity:0.07999998;fill:url(#linearGradient3500);fill-opacity:1;fill-rule:nonzero;stroke:none"
           id="path3715-2"
           transform="matrix(0.99728997,0,0,0.99862826,0.13008131,0.00548696)"
           d="M 13.96875,4 C 10.667823,4 7.875,6.6931198 7.875,10.03125 v 7.0625 c -3.4360632,1.560695 -6,4.840711 -6,8.90625 v 59 c 0,5.561299 4.5637001,10.125 10.125,10.125 h 72 c 5.561299,0 10.125,-4.563701 10.125,-10.125 V 26 c 0,-4.090756 -2.593768,-7.389362 -6.0625,-8.9375 -0.160383,-3.993445 -3.473555,-7.21875 -7.5,-7.21875 h -42.5 L 37.4375,8.625 C 37.135051,8.028958 36.735432,7.0401877 35.9375,6.0625 35.034313,4.9558457 33.554045,4 31.71875,4 Z"
           inkscape:connector-curvature="0" />
        <path
           style="display:inline;opacity:0.1;fill:url(#linearGradient3502);fill-opacity:1;fill-rule:nonzero;stroke:none"
           id="path3707-0"
           transform="matrix(0.99653979,0,0,0.99789769,0.16609001,0.04169586)"
           d="m 13.96875,4.96875 c -2.783187,0 -5.125,2.2572798 -5.125,5.0625 v 7.3125 0.3125 c -3.4368535,1.290325 -6,4.439736 -6,8.34375 v 59 c 0,5.039918 4.1163315,9.15625 9.15625,9.15625 h 72 c 5.039918,0 9.15625,-4.116332 9.15625,-9.15625 V 26 c 0,-3.904014 -2.563147,-7.053425 -6,-8.34375 v -0.3125 c 0,-3.602656 -2.985437,-6.53125 -6.59375,-6.53125 H 37.46875 l -0.875,-1.75 C 36.26366,8.4119848 35.884179,7.5098749 35.1875,6.65625 34.437476,5.737263 33.22926,4.96875 31.71875,4.96875 Z"
           inkscape:connector-curvature="0" />
        <path
           style="display:inline;opacity:0.2;fill:url(#linearGradient1173);fill-opacity:1;fill-rule:nonzero;stroke:none"
           id="path3698-6"
           transform="matrix(0.99716714,0,0,0.99856528,0.13597731,0.00860826)"
           d="M 13.96875,6 C 11.736726,6 9.875,7.7965069 9.875,10.03125 v 7.3125 0.96875 c -3.4279042,0.950944 -6,3.959493 -6,7.6875 v 59 c 0,4.483833 3.6411665,8.125 8.125,8.125 h 72 c 4.483833,0 8.125,-3.641167 8.125,-8.125 V 26 c 0,-3.728007 -2.572096,-6.736556 -6,-7.6875 v -0.96875 c 0,-3.037808 -2.505776,-5.5 -5.5625,-5.5 H 36.84375 L 35.6875,9.53125 C 35.33448,8.8355471 34.9882,8.0255499 34.40625,7.3125 33.8243,6.5994501 32.873904,6 31.71875,6 Z"
           inkscape:connector-curvature="0" />
        <path
           style="display:inline;opacity:0.3;fill:url(#linearGradient3692-0);fill-opacity:1;fill-rule:nonzero;stroke:none"
           id="path3679-1"
           d="M 13.96875,7.125 C 12.32891,7.125 11,8.4154163 11,10.03125 v 7.3125 1.75 C 7.602692,19.579354 5,22.464233 5,26 v 59 c 0,3.878 3.122,7 7,7 h 72 c 3.878,0 7,-3.122 7,-7 V 26 c 0,-3.535767 -2.602692,-6.420646 -6,-6.90625 v -1.75 c 0,-2.42375 -1.97774,-4.375 -4.4375,-4.375 H 36.15625 L 34.6875,10.03125 C 33.954141,8.5860044 33.35859,7.125 31.71875,7.125 Z"
           inkscape:connector-curvature="0" />
        <path
           style="display:inline;opacity:0.45;fill:url(#linearGradient1179);fill-opacity:1;fill-rule:nonzero;stroke:none"
           id="path2885-5"
           d="M 14.875,7 C 13.27948,7 12,8.27948 12,9.875 V 17.09375 19 c -3.324,0 -6,2.676 -6,6 v 60 c 0,3.324 2.676,6 6,6 h 72 c 3.324,0 6,-2.676 6,-6 V 25 c 0,-3.324 -2.676,-6 -6,-6 V 17.09375 C 84,14.70047 82.08078,12.75 79.6875,12.75 H 36.46875 L 35.03125,9.875 C 34.317712,8.4479235 33.75177,7 32.15625,7 Z"
           inkscape:connector-curvature="0" />
      </g>
      <g
         transform="matrix(0.26458333,0,0,0.26458333,132.82556,156.98345)"
         style="display:inline"
         id="layer3-5">
        <path
           style="display:inline;fill:url(#linearGradient4023);fill-opacity:1;fill-rule:nonzero;stroke:none"
           id="rect3325-4"
           d="M 14.88,6 C 13.28448,6 12,7.28448 12,8.88 v 7.2 50.4 4.32 c 0,2.39328 1.92672,4.32 4.32,4.32 H 79.68 C 82.07328,75.12 84,73.19328 84,70.8 V 16.08 c 0,-2.39328 -1.92672,-4.32 -4.32,-4.32 H 36.48 L 35.04,8.88 C 34.326462,7.4529235 33.75552,6 32.16,6 Z"
           inkscape:connector-curvature="0" />
        <path
           style="display:inline;opacity:0.3;fill:url(#linearGradient1181);fill-opacity:1;fill-rule:nonzero;stroke:none"
           id="path3997-7"
           d="M 14.875,6 C 13.27948,6 12,7.27948 12,8.875 v 7.21875 50.375 4.34375 c 0,2.393277 1.91922,4.3125 4.3125,4.3125 h 63.375 C 82.08078,75.124997 84,73.20578 84,70.8125 V 16.09375 C 84,13.70047 82.08078,11.75 79.6875,11.75 H 36.46875 L 35.03125,8.875 C 34.317711,7.4479234 33.75177,6 32.15625,6 Z m 0,1.9375 h 17.28125 c 0.48716,0 0.660447,0.1126732 0.96875,0.5 0.308303,0.3873268 0.629671,1.0718434 1,1.8125 l 1.4375,2.875 c 0.173379,0.341986 0.522842,0.558894 0.90625,0.5625 H 79.6875 c 1.835408,0 3.28125,1.468154 3.28125,3.3125 v 54.71875 c 0,1.844346 -1.436902,3.281248 -3.28125,3.28125 h -63.375 c -1.844346,0 -3.28125,-1.436907 -3.28125,-3.28125 V 67.375 17 9.78125 c 0,-1.0465864 0.797164,-1.84375 1.84375,-1.84375 z"
           inkscape:connector-curvature="0" />
      </g>
      <g
         transform="matrix(0.26458333,0,0,0.26458333,132.82556,156.98345)"
         id="layer1-6">
        <path
           style="fill:url(#linearGradient3706);fill-opacity:1;fill-rule:nonzero;stroke:none"
           id="rect2419-5"
           d="m 12,18 c -3.324,0 -6,2.676 -6,6 v 60 c 0,3.324 2.676,6 6,6 h 72 c 3.324,0 6,-2.676 6,-6 V 24 c 0,-3.324 -2.676,-6 -6,-6 z"
           inkscape:connector-curvature="0" />
        <path
           style="opacity:0.5;fill:url(#linearGradient1183);fill-opacity:1;fill-rule:nonzero;stroke:none"
           id="rect3728-6"
           d="m 12,18 c -3.324,0 -6,2.676 -6,6 v 2 56 2 c 0,0.334721 0.04135,0.6507 0.09375,0.96875 0.0487,0.295596 0.09704,0.596915 0.1875,0.875 0.00988,0.03038 0.020892,0.0636 0.03125,0.09375 0.098865,0.287771 0.2348802,0.547452 0.375,0.8125 0.1445918,0.273507 0.3156161,0.535615 0.5,0.78125 0.1843839,0.245635 0.3737765,0.473472 0.59375,0.6875 0.439947,0.428056 0.94291,0.814526 1.5,1.09375 0.278545,0.139612 0.5734731,0.246947 0.875,0.34375 -0.2562018,-0.100222 -0.4867109,-0.236272 -0.71875,-0.375 -0.00741,-0.0044 -0.023866,0.0045 -0.03125,0 -0.031933,-0.0193 -0.062293,-0.04251 -0.09375,-0.0625 -0.120395,-0.0767 -0.2310226,-0.163513 -0.34375,-0.25 -0.1061728,-0.0808 -0.2132809,-0.161112 -0.3125,-0.25 C 8.4783201,88.557317 8.3087904,88.373362 8.15625,88.1875 8.0486711,88.057245 7.9378561,87.922215 7.84375,87.78125 7.818661,87.74287 7.805304,87.69538 7.78125,87.65625 7.716487,87.553218 7.6510225,87.451733 7.59375,87.34375 7.4927417,87.149044 7.3880752,86.928049 7.3125,86.71875 7.30454,86.69694 7.288911,86.6782 7.28125,86.65625 7.2494249,86.5643 7.2454455,86.469419 7.21875,86.375 7.1884177,86.268382 7.1483606,86.171969 7.125,86.0625 7.0521214,85.720988 7,85.364295 7,85 V 83 27 25 c 0,-2.781848 2.2181517,-5 5,-5 h 2 68 2 c 2.781848,0 5,2.218152 5,5 v 2 56 2 c 0,0.364295 -0.05212,0.720988 -0.125,1.0625 -0.04415,0.206893 -0.08838,0.397658 -0.15625,0.59375 -0.0077,0.02195 -0.0233,0.04069 -0.03125,0.0625 -0.06274,0.173739 -0.138383,0.367449 -0.21875,0.53125 -0.04158,0.0828 -0.07904,0.169954 -0.125,0.25 -0.0546,0.09721 -0.126774,0.18835 -0.1875,0.28125 -0.09411,0.140965 -0.204921,0.275995 -0.3125,0.40625 -0.143174,0.17445 -0.303141,0.346998 -0.46875,0.5 -0.01117,0.0102 -0.01998,0.02115 -0.03125,0.03125 -0.138386,0.125556 -0.285091,0.234436 -0.4375,0.34375 -0.102571,0.07315 -0.204318,0.153364 -0.3125,0.21875 -0.0074,0.0045 -0.02384,-0.0044 -0.03125,0 -0.232039,0.138728 -0.462548,0.274778 -0.71875,0.375 0.301527,-0.0968 0.596455,-0.204138 0.875,-0.34375 0.55709,-0.279224 1.060053,-0.665694 1.5,-1.09375 0.219973,-0.214028 0.409366,-0.441865 0.59375,-0.6875 0.184384,-0.245635 0.355408,-0.507743 0.5,-0.78125 0.14012,-0.265048 0.276135,-0.524729 0.375,-0.8125 0.01041,-0.03078 0.02133,-0.06274 0.03125,-0.09375 0.09046,-0.278085 0.1388,-0.579404 0.1875,-0.875 C 89.95865,84.6507 90,84.334721 90,84 V 82 26 24 c 0,-3.324 -2.676,-6 -6,-6 z"
           inkscape:connector-curvature="0" />
        <path
           style="opacity:0.2;fill:url(#radialGradient3681-6);fill-opacity:1;fill-rule:nonzero;stroke:none"
           id="path3615-9"
           d="M 12,90 C 8.676,90 6,87.324 6,84 V 82 26 24 c 0,-0.334721 0.04135,-0.6507 0.09375,-0.96875 0.0487,-0.295596 0.09704,-0.596915 0.1875,-0.875 0.00988,-0.03038 0.020892,-0.0636 0.03125,-0.09375 0.098865,-0.287771 0.2348802,-0.547452 0.375,-0.8125 0.1445918,-0.273507 0.3156161,-0.535615 0.5,-0.78125 0.1843839,-0.245635 0.3737765,-0.473472 0.59375,-0.6875 0.439947,-0.428056 0.94291,-0.814526 1.5,-1.09375 0.278545,-0.139612 0.5734731,-0.246947 0.875,-0.34375 -0.2562018,0.100222 -0.4867109,0.236272 -0.71875,0.375 -0.00741,0.0044 -0.023866,-0.0045 -0.03125,0 -0.031933,0.0193 -0.062293,0.04251 -0.09375,0.0625 -0.120395,0.0767 -0.2310226,0.163513 -0.34375,0.25 -0.1061728,0.0808 -0.2132809,0.161112 -0.3125,0.25 -0.1779299,0.161433 -0.3474596,0.345388 -0.5,0.53125 -0.1075789,0.130255 -0.2183939,0.265285 -0.3125,0.40625 -0.025089,0.03838 -0.038446,0.08587 -0.0625,0.125 -0.064763,0.103032 -0.1302275,0.204517 -0.1875,0.3125 -0.1010083,0.194706 -0.2056748,0.415701 -0.28125,0.625 C 7.30454,21.30306 7.288911,21.3218 7.28125,21.34375 7.2494249,21.4357 7.2454455,21.530581 7.21875,21.625 7.1884177,21.731618 7.1483606,21.828031 7.125,21.9375 7.0521214,22.279012 7,22.635705 7,23 v 2 56 2 c 0,2.781848 2.2181517,5 5,5 h 2 68 2 c 2.781848,0 5,-2.218152 5,-5 V 81 25 23 c 0,-0.364295 -0.05212,-0.720988 -0.125,-1.0625 -0.04415,-0.206893 -0.08838,-0.397658 -0.15625,-0.59375 -0.0077,-0.02195 -0.0233,-0.04069 -0.03125,-0.0625 -0.06274,-0.173739 -0.138383,-0.367449 -0.21875,-0.53125 -0.04158,-0.0828 -0.07904,-0.169954 -0.125,-0.25 -0.0546,-0.09721 -0.126774,-0.18835 -0.1875,-0.28125 -0.09411,-0.140965 -0.204921,-0.275995 -0.3125,-0.40625 -0.143174,-0.17445 -0.303141,-0.346998 -0.46875,-0.5 -0.01117,-0.0102 -0.01998,-0.02115 -0.03125,-0.03125 -0.138386,-0.125556 -0.285091,-0.234436 -0.4375,-0.34375 -0.102571,-0.07315 -0.204318,-0.153364 -0.3125,-0.21875 -0.0074,-0.0045 -0.02384,0.0044 -0.03125,0 -0.232039,-0.138728 -0.462548,-0.274778 -0.71875,-0.375 0.301527,0.0968 0.596455,0.204138 0.875,0.34375 0.55709,0.279224 1.060053,0.665694 1.5,1.09375 0.219973,0.214028 0.409366,0.441865 0.59375,0.6875 0.184384,0.245635 0.355408,0.507743 0.5,0.78125 0.14012,0.265048 0.276135,0.524729 0.375,0.8125 0.01041,0.03078 0.02133,0.06274 0.03125,0.09375 0.09046,0.278085 0.1388,0.579404 0.1875,0.875 C 89.95865,23.3493 90,23.665279 90,24 v 2 56 2 c 0,3.324 -2.676,6 -6,6 z"
           inkscape:connector-curvature="0" />
      </g>
      <g
         transform="matrix(0.26458333,0,0,0.26458333,132.82556,156.98345)"
         id="layer4-3">
        <path
           style="display:inline;opacity:0.3;fill:none;stroke:#ffffff;stroke-width:1.5;stroke-miterlimit:4;stroke-dasharray:none;filter:url(#filter3694-5)"
           id="path3678"
           clip-path="url(#clipPath3690-3)"
           transform="translate(-60)"
           d="M 108,33.768293 84,57.851916 h 5.920127 V 76.5 H 126.12085 V 57.768293 H 132 L 121.46341,47.148084 v -8.111499 h -5.35191 v 2.843206 z"
           inkscape:connector-curvature="0" />
        <path
           style="display:inline;opacity:0.9;fill:url(#linearGradient1185);fill-opacity:1;stroke:none"
           id="path3347"
           d="M 48,33.268293 24,57.351916 h 5.920127 V 76 H 66.120851 V 57.268293 H 72 L 61.463415,46.648084 v -8.111499 h -5.351916 v 2.843206 z"
           inkscape:connector-curvature="0" />
        <path
           style="display:inline;opacity:0.35;fill:none;stroke:#0d6471;filter:url(#filter3674-4)"
           id="path3664"
           clip-path="url(#clipPath3668-9)"
           d="M 48,33.768293 24,57.851916 h 5.920127 V 76.5 H 66.120851 V 57.768293 H 72 L 61.463415,47.148084 v -8.111499 h -5.351916 v 2.843206 z"
           inkscape:connector-curvature="0" />
      </g>
    </g>
  </g>
</svg>
